<svg width="406" height="250" viewBox="0 0 406 250" fill="none" xmlns="http://www.w3.org/2000/svg">
<g clip-path="url(#clip0)">
<path d="M221.011 2.7564C201.525 6.81838 184.338 17.663 167.254 31.8899C172.876 36.002 176.272 41.7148 176.718 47.8087C177.163 53.9026 174.622 59.8947 169.637 64.5059C164.652 69.1171 157.618 71.9819 150.038 72.4887C142.457 72.9956 134.929 71.1043 129.062 67.2187C108.995 86.4551 87.0833 106.791 60.3403 123.598C-7.75164 166.393 132.275 244.441 221.011 244.441C309.747 244.441 381.682 190.338 381.682 123.598C381.682 56.8592 306.523 -15.0694 221.011 2.7564Z" fill="#E19BA7"/>
<path d="M146.853 64.9301C158.328 64.9301 167.631 57.4652 167.631 48.2567C167.631 39.0483 158.328 31.5834 146.853 31.5834C135.377 31.5834 126.075 39.0483 126.075 48.2567C126.075 57.4652 135.377 64.9301 146.853 64.9301Z" fill="#E19BA7"/>
<path d="M345.593 224.214C376.106 224.214 400.841 221.638 400.841 218.461C400.841 215.284 376.106 212.708 345.593 212.708C315.08 212.708 290.345 215.284 290.345 218.461C290.345 221.638 315.08 224.214 345.593 224.214Z" fill="#3F3D56"/>
<path d="M150.11 250C180.623 250 205.358 247.424 205.358 244.247C205.358 241.069 180.623 238.494 150.11 238.494C119.597 238.494 94.8621 241.069 94.8621 244.247C94.8621 247.424 119.597 250 150.11 250Z" fill="#3F3D56"/>
<path d="M348.64 198.429C348.64 198.429 351.609 206.635 353.588 208.752C355.567 210.87 357.217 214.311 356.227 214.84C355.237 215.37 353.258 221.722 355.897 221.987C358.536 222.252 364.473 215.105 364.803 212.723C365.133 210.341 366.453 201.87 366.453 201.87C366.453 201.87 368.762 194.459 365.133 193.93C361.505 193.4 355.897 193.136 355.897 193.136L348.64 198.429Z" fill="#2F2E41"/>
<path d="M334.786 207.164C334.786 207.164 330.498 216.164 329.509 216.693C328.519 217.222 324.891 221.987 332.148 221.987C339.404 221.987 343.363 220.399 343.363 220.399L345.672 218.281C345.672 218.281 345.672 212.723 345.012 211.929C344.352 211.135 345.012 207.164 345.012 207.164H334.786Z" fill="#2F2E41"/>
<path d="M305.429 124.845C305.429 124.845 300.151 153.432 304.769 162.696C309.387 171.96 314.005 174.607 314.005 174.607L348.97 200.812C348.97 200.812 359.856 196.312 358.866 193.4C358.866 193.4 356.557 192.341 356.227 191.547C355.897 190.753 351.609 190.489 351.609 190.489C351.609 190.489 349.63 188.636 349.63 187.577C349.63 186.518 332.477 167.725 326.87 166.402C326.87 166.402 323.901 163.49 324.231 162.961C324.561 162.431 323.241 160.579 323.241 160.579L326.54 150.256L347.321 147.609C347.321 147.609 355.897 123.257 348.64 121.404C341.384 119.551 305.429 124.845 305.429 124.845Z" fill="#2F2E41"/>
<path d="M346.661 143.374L347.321 147.609C347.321 147.609 347.321 158.726 346.661 159.784C346.002 160.843 345.672 162.431 346.661 163.49C347.651 164.549 349.3 167.196 348.64 168.255C347.981 169.313 349.96 199.223 347.321 201.341C344.682 203.458 345.672 206.105 346.002 206.37C346.331 206.635 345.672 207.694 345.672 207.694C345.672 207.694 332.148 209.546 333.137 207.694C334.127 205.841 334.127 204.782 334.787 204.253C335.446 203.723 334.787 202.929 334.787 202.929C334.787 202.929 335.776 194.459 334.787 193.93C333.797 193.4 330.828 167.99 330.828 167.725C330.828 167.46 329.839 166.931 329.839 165.872C329.839 164.814 329.839 161.373 328.189 160.843C326.54 160.314 326.87 147.344 326.87 147.344L346.661 143.374Z" fill="#2F2E41"/>
<path d="M323.241 48.8787C323.241 48.8787 324.561 56.8195 328.519 58.4076C332.477 59.9958 335.116 60.7898 335.116 60.7898L331.818 70.054L330.498 77.9948H315.325L307.078 72.701L309.717 63.9661L311.037 62.378C311.037 62.378 312.686 56.5548 311.367 54.7019C310.047 52.8491 323.241 48.8787 323.241 48.8787Z" fill="#FFB9B9"/>
<path d="M310.454 63.2717L296.805 70.8165L303.922 91.0636L303.925 91.0717L303.925 91.0717L303.925 91.0719L303.925 91.0728L303.926 91.0767L303.932 91.0931L303.954 91.1582C303.973 91.2156 304.002 91.3003 304.04 91.4088C304.115 91.6257 304.225 91.9374 304.363 92.3149C304.639 93.0705 305.028 94.0873 305.476 95.1352C305.926 96.1855 306.432 97.2554 306.942 98.1224C307.198 98.556 307.448 98.9294 307.688 99.2208C307.932 99.5184 308.141 99.7006 308.304 99.788C308.966 100.142 309.278 100.72 309.324 101.385C309.369 102.012 309.18 102.709 308.903 103.394C308.408 104.617 307.545 105.993 306.789 107.198C306.695 107.348 306.603 107.496 306.513 107.64C306.177 108.18 306.033 108.99 306.048 109.973C306.062 110.944 306.23 112.016 306.453 113.025C306.676 114.03 306.949 114.958 307.168 115.634C307.277 115.972 307.372 116.246 307.439 116.436C307.473 116.53 307.5 116.603 307.518 116.653L307.539 116.708L307.544 116.722L307.545 116.725L307.545 116.725L307.545 116.725L307.556 116.754L307.564 116.783L307.078 116.904C307.564 116.783 307.564 116.784 307.564 116.784L307.564 116.784L307.564 116.786L307.565 116.789L307.568 116.8L307.577 116.84C307.584 116.873 307.595 116.921 307.607 116.982C307.631 117.104 307.662 117.278 307.692 117.493C307.752 117.924 307.806 118.523 307.784 119.203C307.741 120.552 307.396 122.286 306.118 123.605C305.027 124.731 304.414 125.649 304.142 126.24C304.999 125.829 306.564 125.139 308.728 125.139C309.128 125.139 309.63 125.157 310.233 125.178C313.649 125.299 320.303 125.535 330.057 123.299C335.844 121.972 338.233 121.953 339.694 122.202C340.132 122.276 340.461 122.365 340.752 122.443C341.458 122.634 341.949 122.766 343.264 122.502C345.242 122.105 346.429 121.728 347.345 120.845C348.274 119.951 348.987 118.477 349.81 115.703C350.192 114.417 350.183 112.567 349.922 110.46C349.663 108.369 349.164 106.084 348.61 103.961C348.057 101.84 347.452 99.8904 346.985 98.4701C346.752 97.7603 346.553 97.1834 346.413 96.7845C346.343 96.5851 346.288 96.4301 346.25 96.3253L346.207 96.2064L346.196 96.1765L346.193 96.1692L346.192 96.1674L346.192 96.167L346.661 95.9938L346.192 96.167L346.151 96.0541L346.165 95.9346L349.777 65.629C349.774 65.6223 349.77 65.6153 349.766 65.6079C349.72 65.5214 349.636 65.3842 349.493 65.2121C349.208 64.8689 348.682 64.3792 347.745 63.8777C347.304 63.6418 346.183 63.2586 344.664 62.8077C343.167 62.3635 341.339 61.8689 339.528 61.4067C337.718 60.9445 335.93 60.5157 334.514 60.2028C333.805 60.0463 333.193 59.9194 332.719 59.832C332.227 59.7411 331.928 59.7017 331.818 59.7017C331.699 59.7017 331.621 59.742 331.538 59.884C331.438 60.056 331.364 60.3348 331.325 60.7092C331.271 61.232 331.292 61.7864 331.311 62.2774C331.32 62.504 331.328 62.7171 331.328 62.9074C331.328 63.2618 331.101 63.525 330.913 63.6904C330.709 63.8701 330.439 64.034 330.142 64.1845C329.546 64.4875 328.743 64.7865 327.894 65.0692C327.039 65.3535 326.114 65.6287 325.265 65.8806L325.202 65.8992C324.372 66.1454 323.625 66.3671 323.074 66.5565C322.617 66.7136 322.152 67.0851 321.698 67.6129C321.25 68.1347 320.847 68.7716 320.506 69.3994C320.166 70.0251 319.895 70.6289 319.709 71.0772C319.616 71.3009 319.545 71.4848 319.497 71.612C319.473 71.6756 319.455 71.725 319.443 71.758L319.43 71.795L319.427 71.8037L319.426 71.8056L319.426 71.8058L310.454 63.2717ZM310.454 63.2717C310.443 63.599 310.45 63.9859 310.499 64.39C310.629 65.4658 311.084 66.8557 312.523 67.3506C313.68 67.7484 314.672 68.0799 315.374 68.312C315.725 68.4281 316.004 68.5193 316.196 68.5816L316.326 68.6237L318.538 71.9208L319.097 72.7543L319.426 71.8059L310.454 63.2717ZM303.589 126.5C303.589 126.5 303.591 126.5 303.593 126.499C303.59 126.5 303.589 126.5 303.589 126.5Z" fill="#2F2E41" stroke="black"/>
<path d="M298.172 70.3187H296.193C296.193 70.3187 292.895 74.8185 292.895 77.9948C292.895 81.1711 294.544 99.1701 294.544 99.1701L304.11 107.111L306.419 101.023L307.078 87.5236L298.172 70.3187Z" fill="#2F2E41"/>
<path d="M303.45 98.376C303.45 98.376 292.565 95.9938 292.895 99.6995C293.224 103.405 294.874 107.905 300.151 108.964C305.429 110.022 307.078 104.199 307.078 104.199C307.078 104.199 307.738 98.9054 303.45 98.376Z" fill="#575A89"/>
<path d="M344.352 110.552C344.352 110.552 343.693 122.728 339.734 124.051L349.3 125.904C349.3 125.904 353.918 113.199 353.258 112.669C352.599 112.14 344.352 110.552 344.352 110.552Z" fill="#FFB9B9"/>
<path d="M287.775 85.7678L293.44 83.7821C293.545 83.7453 293.657 83.7255 293.772 83.7238C293.886 83.722 294 83.7383 294.106 83.7718C294.212 83.8053 294.31 83.8553 294.392 83.9189C294.474 83.9825 294.54 84.0585 294.586 84.1426L300.884 95.7108C300.997 95.9182 301.002 96.1531 300.899 96.3637C300.796 96.5744 300.593 96.7437 300.335 96.8343L295.024 98.6962C294.765 98.7868 294.472 98.7913 294.21 98.7087C293.947 98.6261 293.736 98.4633 293.623 98.2559L287.326 86.6876C287.233 86.5178 287.229 86.3256 287.313 86.1531C287.397 85.9806 287.563 85.842 287.775 85.7678Z" fill="#2F2E41"/>
<path opacity="0.1" d="M287.775 85.7678L293.44 83.7821C293.545 83.7453 293.657 83.7255 293.772 83.7238C293.886 83.722 294 83.7383 294.106 83.7718C294.212 83.8053 294.31 83.8553 294.392 83.9189C294.474 83.9825 294.54 84.0585 294.586 84.1426L300.884 95.7108C300.997 95.9182 301.002 96.1531 300.899 96.3637C300.796 96.5744 300.593 96.7437 300.335 96.8343L295.024 98.6962C294.765 98.7868 294.472 98.7913 294.21 98.7087C293.947 98.6261 293.736 98.4633 293.623 98.2559L287.326 86.6876C287.233 86.5178 287.229 86.3256 287.313 86.1531C287.397 85.9806 287.563 85.842 287.775 85.7678Z" fill="black"/>
<path d="M288.096 86.3583L293.035 84.627C293.247 84.5529 293.486 84.5492 293.701 84.6168C293.916 84.6844 294.089 84.8178 294.181 84.9875L300.158 95.9653C300.271 96.1727 300.276 96.4075 300.173 96.6182C300.07 96.8289 299.867 96.9982 299.609 97.0888L295.024 98.6962C294.765 98.7868 294.472 98.7913 294.21 98.7087C293.947 98.6261 293.736 98.4632 293.623 98.2559L287.647 87.2781C287.555 87.1083 287.55 86.916 287.634 86.7435C287.719 86.571 287.885 86.4325 288.096 86.3583Z" fill="#2F2E41"/>
<path d="M292.638 91.041C293.44 90.7599 293.803 90.0033 293.448 89.3511C293.092 88.6989 292.155 88.398 291.353 88.6792C290.551 88.9603 290.188 89.7169 290.543 90.3691C290.898 91.0213 291.836 91.3222 292.638 91.041Z" fill="#F2F2F2"/>
<path opacity="0.1" d="M346.826 69.1276L348.97 66.613C348.97 66.613 356.887 76.4066 356.227 83.0239C355.567 89.6412 354.908 89.9059 354.908 90.9646C354.908 92.0234 353.258 92.0234 354.908 93.3469C356.557 94.6703 358.866 96.5232 357.547 97.5819C356.227 98.6407 355.238 98.6407 355.567 99.9641C355.778 100.926 355.889 101.9 355.897 102.876C355.897 102.876 353.093 107.243 352.104 107.243C351.114 107.243 341.713 114.257 341.713 113.463C341.713 112.669 342.703 107.111 342.703 106.317C342.703 105.523 343.033 102.876 343.693 102.082C344.352 101.288 344.352 101.552 343.693 100.758C343.033 99.9641 343.033 100.758 343.033 99.9641C343.033 99.1701 343.363 98.1113 342.373 97.8466C341.384 97.5819 340.394 97.8466 341.054 96.5232C341.713 95.1997 341.054 94.1409 340.724 94.1409C340.394 94.1409 338.745 93.8762 339.734 93.0822C340.724 92.2881 337.755 76.936 337.755 76.936C337.755 76.936 338.25 73.098 346.826 69.1276Z" fill="black"/>
<path d="M345.012 63.4368L350.619 65.5543C350.619 65.5543 358.536 75.3479 357.876 81.9652C357.217 88.5824 356.557 88.8471 356.557 89.9059C356.557 90.9647 354.908 90.9647 356.557 92.2881C358.206 93.6116 360.515 95.4644 359.196 96.5232C357.876 97.5819 356.887 97.5819 357.217 98.9054C357.428 99.8669 357.538 100.841 357.546 101.817C357.546 101.817 354.578 114.522 353.588 114.522C352.599 114.522 343.363 113.199 343.363 112.405C343.363 111.611 344.352 106.052 344.352 105.258C344.352 104.464 344.682 101.817 345.342 101.023C346.002 100.229 346.002 100.494 345.342 99.6995C344.682 98.9054 344.682 99.6995 344.682 98.9054C344.682 98.1113 345.012 97.0526 344.022 96.7879C343.033 96.5232 342.043 96.7879 342.703 95.4644C343.363 94.141 342.703 93.0822 342.373 93.0822C342.043 93.0822 340.394 92.8175 341.384 92.0234C342.373 91.2294 339.404 75.8773 339.404 75.8773C339.404 75.8773 336.436 67.4071 345.012 63.4368Z" fill="#2F2E41"/>
<path d="M294.96 100.266C294.652 100.332 294.327 100.31 294.037 100.205C293.747 100.1 293.512 99.9187 293.369 99.6906C291.854 97.2586 287.747 90.1254 291.575 89.9059C295.107 89.7035 298.253 95.2302 299.538 97.8407C299.62 98.0065 299.656 98.1843 299.646 98.3624C299.636 98.5406 299.579 98.7149 299.478 98.874C299.378 99.0331 299.237 99.1733 299.064 99.2853C298.891 99.3974 298.691 99.4787 298.476 99.524L294.96 100.266Z" fill="#FFB9B9"/>
<path d="M314.005 56.2901C320.746 56.2901 326.21 51.9054 326.21 46.4965C326.21 41.0877 320.746 36.7029 314.005 36.7029C307.265 36.7029 301.801 41.0877 301.801 46.4965C301.801 51.9054 307.265 56.2901 314.005 56.2901Z" fill="#FFB9B9"/>
<path d="M309.521 40.8562C307.998 41.2778 306.426 41.5756 304.829 41.745C303.627 41.8954 302.22 41.9725 301.375 41.27C300.546 40.5807 300.68 39.4307 301.246 38.587C301.811 37.7433 302.717 37.0818 303.397 36.2941C304.466 35.0552 305.097 33.4129 306.806 32.7888C307.514 32.5712 308.265 32.4586 309.024 32.4563C313.459 32.2294 318.075 32.025 322.182 33.3868C323.725 33.8586 325.092 34.6392 326.153 35.6544C326.849 36.4019 327.385 37.2365 327.741 38.1245C328.839 40.7372 329.083 43.5322 328.45 46.2423C327.817 48.9524 326.329 51.4869 324.127 53.6036C322.63 52.5215 323.281 50.021 321.387 49.4696C320.766 49.2887 320.063 49.4146 319.427 49.2714C317.427 48.8213 317.527 46.3408 315.862 45.3442C315.498 45.1871 315.176 44.9748 314.914 44.7189C314.767 44.4735 314.704 44.2016 314.729 43.9303C314.717 43.0011 315.261 40.6407 314.156 40.0037C313.032 39.3554 310.601 40.5431 309.521 40.8562Z" fill="#2F2E41"/>
<path d="M191.204 18.1115H291.814V60.474H284.546V76.1297L265.036 60.474H191.204V18.1115Z" fill="#9BCAE1"/>
<path d="M241.509 48.3602L239.734 47.0752C233.43 42.4305 229.268 39.416 229.268 35.6607C229.252 34.9462 229.415 34.2365 229.748 33.5735C230.08 32.9105 230.575 32.3078 231.202 31.801C231.83 31.2941 232.578 30.8935 233.402 30.6229C234.227 30.3522 235.11 30.2169 236.001 30.2251C237.051 30.2296 238.088 30.4176 239.04 30.776C239.991 31.1344 240.834 31.6547 241.509 32.3006C242.185 31.6546 243.027 31.1344 243.979 30.776C244.93 30.4176 245.967 30.2296 247.018 30.2251C247.908 30.2169 248.792 30.3522 249.616 30.6229C250.44 30.8935 251.188 31.2941 251.816 31.801C252.444 32.3078 252.939 32.9105 253.271 33.5735C253.603 34.2365 253.766 34.9462 253.751 35.6607C253.751 39.416 249.589 42.4306 243.285 47.0752L241.509 48.3602Z" fill="white"/>
<path d="M0 122.029L96.7827 99.9717L111.206 140.723L104.214 142.316L109.545 157.376L85.4462 146.593L14.4233 162.78L0 122.029Z" fill="#9BCAE1"/>
<path d="M58.6903 140.098L56.545 139.251C48.8992 136.166 43.8691 134.178 42.5906 130.566C42.3323 129.882 42.2476 129.163 42.3416 128.453C42.4355 127.742 42.7062 127.054 43.1375 126.429C43.5689 125.804 44.1521 125.254 44.8528 124.813C45.5535 124.372 46.3573 124.048 47.2166 123.861C48.2291 123.635 49.2907 123.588 50.3278 123.725C51.3649 123.861 52.3526 124.176 53.2224 124.65C53.6523 123.88 54.2858 123.195 55.0788 122.642C55.8719 122.088 56.8055 121.68 57.8149 121.446C58.6687 121.242 59.5646 121.179 60.4496 121.259C61.3346 121.338 62.1906 121.56 62.9671 121.909C63.7435 122.259 64.4246 122.731 64.97 123.296C65.5154 123.861 65.914 124.508 66.1423 125.198C67.4209 128.811 64.4435 132.623 59.9605 138.473L58.6903 140.098Z" fill="white"/>
<path d="M111.106 97.3457C111.106 97.3457 107.835 105.221 109.652 106.971C111.47 108.721 98.7477 101.721 98.7477 101.721L105.654 95.304L111.106 97.3457Z" fill="#A0616A"/>
<path d="M103.646 97.3329C112.659 97.3329 119.966 91.4698 119.966 84.2372C119.966 77.0046 112.659 71.1415 103.646 71.1415C94.6328 71.1415 87.3262 77.0046 87.3262 84.2372C87.3262 91.4698 94.6328 97.3329 103.646 97.3329Z" fill="#2F2E41"/>
<path d="M167.083 186.015L158.723 191.265L153.998 185.14L162.357 180.473L167.083 186.015Z" fill="#A0616A"/>
<path d="M155.27 225.537L157.451 233.996L163.63 240.704C163.63 240.704 180.35 244.788 169.082 246.83C157.814 248.871 155.27 245.371 155.27 245.371L147.273 239.829V247.413H142.184L141.094 236.621C141.094 236.621 140.367 233.413 143.638 229.912L144.365 224.662L155.27 225.537Z" fill="#2F2E41"/>
<path d="M113.105 120.826L116.013 134.243C116.013 134.243 146.909 131.618 149.09 136.576C151.271 141.535 151.998 142.993 151.998 142.993L145.819 144.743L142.911 140.368C142.025 140.116 141.085 140.012 140.147 140.062C139.21 140.113 138.295 140.316 137.459 140.66C134.551 141.826 109.107 144.743 107.29 140.951C105.472 137.159 100.383 123.159 100.383 123.159L108.017 118.201L113.105 120.826Z" fill="#A0616A"/>
<path opacity="0.1" d="M113.105 120.826L116.013 134.243C116.013 134.243 146.909 131.618 149.09 136.576C151.271 141.535 151.998 142.993 151.998 142.993L145.819 144.743L142.911 140.368C142.025 140.116 141.085 140.012 140.147 140.062C139.21 140.113 138.295 140.316 137.459 140.66C134.551 141.826 109.107 144.743 107.29 140.951C105.472 137.159 100.383 123.159 100.383 123.159L108.017 118.201L113.105 120.826Z" fill="black"/>
<path d="M130.189 159.618L132.734 166.619L139.276 193.453C139.276 193.453 140.003 213.287 141.094 215.62C142.184 217.954 142.184 218.245 141.094 219.12C140.003 219.995 137.822 222.912 141.094 224.662C144.365 226.412 155.997 228.454 156.36 226.412C156.723 224.371 156.724 221.162 156.36 219.704C155.997 218.245 157.45 195.495 157.45 195.495L153.089 160.785L138.186 155.243L130.189 159.618Z" fill="#2F2E41"/>
<path opacity="0.1" d="M130.189 159.618L132.734 166.619L139.276 193.453C139.276 193.453 140.003 213.287 141.094 215.62C142.184 217.954 142.184 218.245 141.094 219.12C140.003 219.995 137.822 222.912 141.094 224.662C144.365 226.412 155.997 228.454 156.36 226.412C156.723 224.371 156.724 221.162 156.36 219.704C155.997 218.245 157.45 195.495 157.45 195.495L153.089 160.785L138.186 155.243L130.189 159.618Z" fill="black"/>
<path d="M145.819 132.201L153.816 144.451C153.816 144.451 199.615 160.785 195.616 167.494C191.618 174.202 169.445 186.744 169.445 186.744C169.445 186.744 168.355 191.703 165.084 190.244C161.812 188.786 153.816 181.202 154.543 180.327C155.27 179.452 157.814 177.411 158.904 177.702C159.995 177.994 172.717 170.119 172.717 170.119L150.908 165.744C150.908 165.744 124.737 165.16 123.283 155.243C121.829 145.326 123.283 143.576 123.283 143.576L121.466 140.368L136.368 133.076L145.819 132.201Z" fill="#2F2E41"/>
<path d="M157.087 180.619L149.454 186.161C149.454 186.161 142.911 183.828 138.913 184.703C134.914 185.578 128.008 186.161 128.008 186.161L129.099 191.119L138.373 189.747L130.916 198.12C130.916 198.12 130.916 211.245 135.641 211.245C140.367 211.245 138.913 203.37 138.913 203.37L153.452 194.328C153.452 194.328 160.722 191.994 161.449 191.994C162.176 191.994 157.087 180.619 157.087 180.619Z" fill="#2F2E41"/>
<path d="M109.652 99.6791C116.478 99.6791 122.011 95.2391 122.011 89.7621C122.011 84.2851 116.478 79.8452 109.652 79.8452C102.827 79.8452 97.2938 84.2851 97.2938 89.7621C97.2938 95.2391 102.827 99.6791 109.652 99.6791Z" fill="#A0616A"/>
<path d="M97.4755 97.4916C97.4755 97.4916 103.291 96.3249 105.109 97.4916C106.926 98.6583 107.29 101.283 109.834 101.575C112.378 101.867 114.559 101.867 114.923 102.158C115.286 102.45 123.646 110.617 123.646 110.617C123.646 110.617 128.735 112.95 129.826 116.159C130.916 119.367 141.821 130.159 143.275 131.326C144.729 132.493 133.824 138.326 130.189 140.368C126.554 142.41 116.013 143.285 112.742 138.618C109.471 133.951 91.6598 103.617 97.4755 97.4916Z" fill="#E1B29B"/>
<path d="M111.288 116.45L114.196 129.868C114.196 129.868 145.092 127.242 147.273 132.201C149.454 137.159 150.181 138.618 150.181 138.618L144.002 140.368L141.094 135.993C140.208 135.741 139.268 135.637 138.33 135.687C137.392 135.737 136.478 135.941 135.641 136.284C132.734 137.451 107.29 140.368 105.472 136.576C103.655 132.784 98.566 118.784 98.566 118.784L106.199 113.825L111.288 116.45Z" fill="#A0616A"/>
<path d="M104.342 98.7187C104.342 98.7187 113.105 113.534 112.378 117.617C111.651 121.701 109.107 118.784 109.107 118.784C109.107 118.784 105.836 114.7 104.382 117.034C102.928 119.367 101.11 122.576 99.6565 122.284C98.2025 121.992 90.2059 100.408 94.5677 98.3666C98.9295 96.3249 104.342 98.7187 104.342 98.7187Z" fill="#E1B29B"/>
<path d="M85.9662 80.0903C94.9794 80.0903 102.286 74.2271 102.286 66.9946C102.286 59.762 94.9794 53.8989 85.9662 53.8989C76.953 53.8989 69.6464 59.762 69.6464 66.9946C69.6464 74.2271 76.953 80.0903 85.9662 80.0903Z" fill="#2F2E41"/>
<path d="M71.8895 77.8386C74.0018 79.0637 76.449 79.865 79.0264 80.1756C81.6037 80.4861 84.2363 80.2968 86.7038 79.6236C89.1713 78.9503 91.402 77.8127 93.2092 76.3058C95.0165 74.7989 96.3477 72.9667 97.0916 70.9623C96.8101 72.7585 96.0676 74.4884 94.9109 76.0428C93.7542 77.5971 92.2085 78.9421 90.3714 79.9929C88.5342 81.0437 86.4455 81.7775 84.2371 82.1478C82.0287 82.5181 79.7486 82.517 77.5408 82.1446C75.333 81.7722 73.2454 81.0364 71.4098 79.9839C69.5742 78.9314 68.0304 77.5849 66.876 76.0294C65.7217 74.474 64.9817 72.7434 64.7029 70.9469C64.4241 69.1504 64.6124 67.327 65.2561 65.5919C64.8905 67.923 65.3135 70.2901 66.4806 72.4449C67.6478 74.5997 69.5161 76.4628 71.8895 77.8386Z" fill="#2F2E41"/>
<path d="M99.294 96.0233C105.904 96.0233 111.262 91.7237 111.262 86.4198C111.262 81.1159 105.904 76.8163 99.294 76.8163C92.6844 76.8163 87.3262 81.1159 87.3262 86.4198C87.3262 91.7237 92.6844 96.0233 99.294 96.0233Z" fill="#2F2E41"/>
<path d="M109.358 89.4755C115.216 89.4755 119.966 86.4951 119.966 82.8185C119.966 79.142 115.216 76.1616 109.358 76.1616C103.499 76.1616 98.7501 79.142 98.7501 82.8185C98.7501 86.4951 103.499 89.4755 109.358 89.4755Z" fill="#2F2E41"/>
<path d="M109.834 94.1373C111.139 94.1373 112.197 92.6355 112.197 90.783C112.197 88.9305 111.139 87.4287 109.834 87.4287C108.529 87.4287 107.471 88.9305 107.471 90.783C107.471 92.6355 108.529 94.1373 109.834 94.1373Z" fill="#A0616A"/>
<path d="M142.266 140.24C142.266 140.24 148.7 137.278 149.895 138.021C151.09 138.764 151.62 141.088 151.62 141.088L144.183 143.43L142.002 140.222L142.266 140.24Z" fill="#2F2E41"/>
<path d="M111.602 241.331V205.693" stroke="#3F3D56" stroke-width="2" stroke-miterlimit="10"/>
<path d="M111.602 210.733C115.071 210.733 117.883 208.477 117.883 205.693C117.883 202.91 115.071 200.654 111.602 200.654C108.133 200.654 105.322 202.91 105.322 205.693C105.322 208.477 108.133 210.733 111.602 210.733Z" fill="#3F3D56"/>
<path d="M111.602 227.658C111.602 227.658 110.705 212.173 92.3123 213.973L111.602 227.658Z" fill="#3F3D56"/>
<path d="M302.877 214.931V179.294" stroke="#3F3D56" stroke-width="2" stroke-miterlimit="10"/>
<path d="M302.877 184.333C306.345 184.333 309.157 182.077 309.157 179.294C309.157 176.51 306.345 174.254 302.877 174.254C299.408 174.254 296.596 176.51 296.596 179.294C296.596 182.077 299.408 184.333 302.877 184.333Z" fill="#3F3D56"/>
<path d="M302.877 201.258C302.877 201.258 301.98 185.773 283.587 187.573L302.877 201.258Z" fill="#3F3D56"/>
<path d="M380.43 215.746V144.471" stroke="#3F3D56" stroke-width="2" stroke-miterlimit="10"/>
<path d="M380.43 149.51C383.898 149.51 386.71 147.254 386.71 144.471C386.71 141.687 383.898 139.431 380.43 139.431C376.961 139.431 374.149 141.687 374.149 144.471C374.149 147.254 376.961 149.51 380.43 149.51Z" fill="#3F3D56"/>
<path d="M380.43 164.995C380.43 164.995 381.327 149.51 399.72 151.31L380.43 164.995Z" fill="#3F3D56"/>
<path d="M380.43 214.361C380.43 214.361 376.392 185.868 399.72 184.428" stroke="#3F3D56" stroke-width="2" stroke-miterlimit="10"/>
<path d="M399.72 189.468C403.188 189.468 406 187.212 406 184.428C406 181.645 403.188 179.388 399.72 179.388C396.251 179.388 393.439 181.645 393.439 184.428C393.439 187.212 396.251 189.468 399.72 189.468Z" fill="#3F3D56"/>
</g>
<defs>
<clipPath id="clip0">
<rect width="406" height="250" fill="white"/>
</clipPath>
</defs>
</svg>
