<svg width="589" height="306" viewBox="0 0 589 306" fill="none" xmlns="http://www.w3.org/2000/svg">
<g clip-path="url(#clip0)">
<path d="M390.778 104.65L191.216 0L160.848 42.5437C169.049 47.1098 174.848 54.2392 177.009 62.4146C179.171 70.5899 177.524 79.1654 172.42 86.3159C167.316 93.4664 159.158 98.6271 149.681 100.7C140.205 102.772 130.159 101.592 121.682 97.4122L111.827 111.218H195.947V198.524L400.897 306L443.792 245.907H390.778V104.65Z" fill="#9BCAE1"/>
<path d="M292.614 234.062C312.574 234.062 328.755 231.918 328.755 229.274C328.755 226.629 312.574 224.485 292.614 224.485C272.654 224.485 256.473 226.629 256.473 229.274C256.473 231.918 272.654 234.062 292.614 234.062Z" fill="#E19BA7"/>
<path d="M293.783 186.865L330.198 151.16C332.862 148.826 334.963 146.065 336.382 143.035C337.801 140.004 338.51 136.764 338.468 133.499C338.426 130.234 337.634 127.008 336.138 124.005C334.641 121.003 332.469 118.282 329.746 115.998C327.022 113.715 323.801 111.914 320.266 110.698C316.73 109.481 312.95 108.874 309.14 108.91C305.331 108.946 301.567 109.625 298.064 110.907C294.561 112.19 291.386 114.052 288.722 116.386C285.999 114.103 282.778 112.301 279.242 111.085C275.707 109.869 271.926 109.261 268.117 109.297C264.308 109.333 260.544 110.012 257.04 111.295C253.537 112.577 250.363 114.439 247.699 116.773C245.035 119.107 242.933 121.869 241.514 124.899C240.095 127.929 239.387 131.169 239.429 134.434C239.471 137.7 240.262 140.926 241.759 143.928C243.256 146.931 245.428 149.652 248.151 151.935L288.664 186.865" fill="#E19BA7"/>
<path d="M197.084 110.73H0.568848V263.458H197.084V110.73Z" stroke="#3F3D56" stroke-width="2" stroke-miterlimit="10"/>
<path d="M588.431 92.6913H391.916V245.419H588.431V92.6913Z" stroke="#3F3D56" stroke-width="2" stroke-miterlimit="10"/>
<path d="M141.909 91.3067C155.417 91.3067 166.368 81.9207 166.368 70.3424C166.368 58.7641 155.417 49.378 141.909 49.378C128.4 49.378 117.45 58.7641 117.45 70.3424C117.45 81.9207 128.4 91.3067 141.909 91.3067Z" fill="#E19BA7"/>
<path d="M199.928 184.428C199.928 184.428 230.644 175.164 243.727 187.84C256.81 200.516 293.214 180.527 293.214 180.527" stroke="#3F3D56" stroke-width="2" stroke-miterlimit="10"/>
<path d="M449.64 187.84C449.64 187.84 443.951 176.139 405.272 186.865C366.592 197.591 311.985 197.104 298.334 180.527L334.748 144.822C337.412 142.488 339.514 139.727 340.933 136.697C342.352 133.666 343.061 130.426 343.019 127.161C342.977 123.896 342.185 120.67 340.688 117.667C339.192 114.664 337.02 111.944 334.296 109.66C331.573 107.377 328.352 105.576 324.816 104.36C321.281 103.143 317.5 102.536 313.691 102.572C309.882 102.608 306.118 103.287 302.614 104.569C299.111 105.852 295.937 107.714 293.273 110.048C287.773 105.436 280.361 102.887 272.668 102.959C264.974 103.032 257.63 105.721 252.249 110.435C246.869 115.149 243.894 121.502 243.979 128.096C244.064 134.69 247.201 140.986 252.701 145.597L293.214 180.527" stroke="#3F3D56" stroke-width="2" stroke-miterlimit="10"/>
<path d="M297.228 230.083C317.188 230.083 333.369 227.939 333.369 225.294C333.369 222.65 317.188 220.506 297.228 220.506C277.268 220.506 261.087 222.65 261.087 225.294C261.087 227.939 277.268 230.083 297.228 230.083Z" stroke="#3F3D56" stroke-width="2" stroke-miterlimit="10"/>
<path d="M293.383 262.749C309.096 262.749 321.834 261.061 321.834 258.979C321.834 256.897 309.096 255.21 293.383 255.21C277.67 255.21 264.932 256.897 264.932 258.979C264.932 261.061 277.67 262.749 293.383 262.749Z" fill="#E19BA7"/>
<path d="M293.383 290.224C304 290.224 312.607 289.084 312.607 287.677C312.607 286.271 304 285.13 293.383 285.13C282.766 285.13 274.159 286.271 274.159 287.677C274.159 289.084 282.766 290.224 293.383 290.224Z" fill="#E19BA7"/>
<path d="M297.228 259.391C312.941 259.391 325.679 257.703 325.679 255.621C325.679 253.539 312.941 251.851 297.228 251.851C281.514 251.851 268.776 253.539 268.776 255.621C268.776 257.703 281.514 259.391 297.228 259.391Z" stroke="#3F3D56" stroke-width="2" stroke-miterlimit="10"/>
<path d="M297.228 287.697C307.845 287.697 316.452 286.556 316.452 285.15C316.452 283.743 307.845 282.603 297.228 282.603C286.611 282.603 278.004 283.743 278.004 285.15C278.004 286.556 286.611 287.697 297.228 287.697Z" stroke="#3F3D56" stroke-width="2" stroke-miterlimit="10"/>
<path d="M115.242 190.501C125.688 190.501 134.156 183.242 134.156 174.289C134.156 165.335 125.688 158.077 115.242 158.077C104.795 158.077 96.3271 165.335 96.3271 174.289C96.3271 183.242 104.795 190.501 115.242 190.501Z" fill="#2F2E41"/>
<path d="M106.213 182.479C106.213 182.479 100.052 194.172 98.2917 194.549C96.5314 194.926 112.813 201.715 112.813 201.715C112.813 201.715 115.894 187.383 117.214 186.628C118.534 185.874 106.213 182.479 106.213 182.479Z" fill="#9F616A"/>
<path d="M115.454 191.154C122.502 191.154 128.215 186.257 128.215 180.216C128.215 174.175 122.502 169.278 115.454 169.278C108.406 169.278 102.692 174.175 102.692 180.216C102.692 186.257 108.406 191.154 115.454 191.154Z" fill="#9F616A"/>
<path d="M126.141 263.458H71.8759C73.6904 257.808 75.6301 252.206 76.7222 249.095C77.2739 247.535 77.6095 246.599 77.6095 246.599C77.6095 246.599 118.536 254.141 119.412 254.522C119.905 254.972 120.341 255.466 120.715 255.994C121.994 257.603 124.037 260.367 126.141 263.458Z" fill="#2F2E41"/>
<path d="M58.6866 156.831L45.485 139.481C45.485 139.481 48.7496 121.28 44.3491 124.675C39.9485 128.07 38.5559 141.778 38.5559 141.778L53.846 161.734L58.6866 156.831Z" fill="#9F616A"/>
<path d="M178.382 188.514L190.263 187.76C190.263 187.76 204.345 174.936 205.225 179.085C206.105 183.234 193.784 192.286 193.784 192.286L177.502 193.795L178.382 188.514Z" fill="#9F616A"/>
<path d="M91.6909 192.286V188.514C91.6909 188.514 80.2494 182.102 80.6895 180.971C81.1295 179.839 79.8094 179.085 79.8094 179.085C79.8094 179.085 78.4892 177.576 78.4892 177.199C78.4892 176.822 76.729 176.444 76.729 176.444L65.7276 165.506C65.7276 165.506 59.5668 154.945 58.2466 155.322C56.9265 155.7 49.8856 157.963 50.7657 159.471C51.6458 160.98 76.2889 193.417 76.2889 193.417C76.2889 193.417 77.6091 200.584 79.8094 200.584C82.0096 200.584 91.6909 192.286 91.6909 192.286Z" fill="#E1B29B"/>
<path d="M121.175 196.812C121.175 196.812 130.856 196.435 131.296 196.812C131.736 197.189 137.897 196.812 137.897 196.812C137.897 196.812 154.619 193.417 155.939 192.286C157.259 191.154 179.262 186.251 180.142 188.514C181.022 190.777 183.222 195.303 181.022 196.058C178.822 196.812 119.414 209.636 119.414 209.636L121.175 196.812Z" fill="#E1B29B"/>
<path d="M108.625 163.934C112.948 163.934 116.452 160.931 116.452 157.226C116.452 153.521 112.948 150.518 108.625 150.518C104.303 150.518 100.798 153.521 100.798 157.226C100.798 160.931 104.303 163.934 108.625 163.934Z" fill="#2F2E41"/>
<path d="M98.1895 153.592C98.1896 151.934 98.9062 150.335 100.201 149.103C101.496 147.87 103.277 147.093 105.201 146.92C104.93 146.896 104.658 146.884 104.386 146.884C102.31 146.884 100.319 147.591 98.8513 148.849C97.3836 150.107 96.559 151.813 96.559 153.592C96.559 155.371 97.3836 157.078 98.8513 158.336C100.319 159.594 102.31 160.301 104.386 160.301C104.658 160.301 104.93 160.288 105.201 160.264C103.277 160.091 101.496 159.314 100.201 158.082C98.9062 156.85 98.1896 155.25 98.1895 153.592Z" fill="#2F2E41"/>
<path d="M117.442 177.56C124.646 177.56 130.486 174.556 130.486 170.852C130.486 167.147 124.646 164.143 117.442 164.143C110.238 164.143 104.398 167.147 104.398 170.852C104.398 174.556 110.238 177.56 117.442 177.56Z" fill="#2F2E41"/>
<path d="M102.472 188.326C102.472 188.326 98.5116 190.966 97.6315 191.343C96.7514 191.72 91.4707 187.948 90.5906 187.948C89.7105 187.948 78.2691 199.264 78.2691 199.264C78.2691 199.264 80.3954 201.363 78.2691 212.088C77.4716 216.11 75.8896 233.306 75.8896 235.569C75.8896 237.832 67.2677 243.394 75.1887 248.297C83.1097 253.2 120.954 258.481 121.395 255.463C121.835 252.446 116.994 244.525 119.194 240.753C121.395 236.982 121.395 223.026 121.395 223.026L124.035 208.316L126.235 196.623C126.235 196.623 115.894 194.172 115.014 194.172C114.134 194.172 110.173 199.452 102.472 188.326Z" fill="#E1B29B"/>
<path d="M499.017 152.301L490.013 152.6L490.462 162.524L499.466 162.225L499.017 152.301Z" fill="#6C63FF"/>
<path d="M458.397 187.055C458.397 187.055 445.926 181.948 446.126 186.358C446.326 190.769 458.696 193.67 458.696 193.67L458.397 187.055Z" fill="#FFB9B9"/>
<path d="M516.385 245.419H457.233C458.467 240.456 460.817 234.469 462.654 230.154C464.11 226.741 465.236 224.372 465.236 224.372C471.954 217.878 481.704 217.712 490.85 219.316C491.942 219.506 493.029 219.721 494.098 219.96C494.223 219.984 494.349 220.013 494.474 220.043C496.612 220.515 498.689 221.062 500.651 221.608C504.036 222.553 507.09 223.509 509.559 224.157C510.8 224.509 512.075 224.766 513.37 224.923C513.653 224.949 513.938 224.958 514.223 224.952C515.201 224.918 515.878 225.82 516.316 227.395C517.306 230.949 517.079 237.95 516.385 245.419Z" fill="#2F2E41"/>
<path d="M504.716 143.002C504.716 143.002 511.572 152.16 514.245 154.28C516.917 156.399 509.399 161.066 509.399 161.066L495.941 162.618C495.941 162.618 496.11 152.122 495.417 151.04C494.724 149.959 504.716 143.002 504.716 143.002Z" fill="#FFB9B9"/>
<path d="M493.019 154.985C493.019 154.985 495.792 159.31 498.364 159.224C500.937 159.139 514.245 154.28 514.813 152.604C515.382 150.929 519.221 164.605 519.221 164.605L486.658 213.722L478.715 209.017L482.564 180.178L485.725 164.614L493.019 154.985Z" fill="#9BCAE1"/>
<path d="M516.014 198.943C514.669 201.182 513.984 203.669 514.017 206.187C514.022 206.297 514.027 206.408 514.038 206.518C514.346 211.62 516.539 217.521 517.326 221.813C517.897 224.891 517.734 227.138 515.633 227.666C510.537 228.94 516.376 229.85 496.661 235.475C476.946 241.099 473.506 236.244 473.456 235.142C473.406 234.039 476.248 225.663 475.58 225.133C474.911 224.603 466.231 232.069 463.608 231.052C460.985 230.035 463.309 224.436 463.309 224.436C463.309 224.436 469.217 212.645 469.092 209.889C468.968 207.132 478.042 194.132 478.042 194.132L484.214 159.695C484.214 159.695 486.587 155.199 489.778 154.541C491.789 154.183 493.883 154.509 495.617 155.451L490.277 165.567L484.643 183.422L485.586 190.016C485.586 190.016 492.137 178.204 496.44 173.644C500.743 169.084 509.917 158.288 509.917 158.288C509.917 158.288 512.059 152.094 510.442 150.243C508.825 148.386 517.187 148.108 520.752 155.72C522.641 159.754 525.709 165.769 527.631 171.37C529.344 176.332 530.152 180.971 528.456 183.622C525.863 187.673 519.34 192.997 516.014 198.943Z" fill="#2F2E41"/>
<path opacity="0.1" d="M528.456 183.622C525.863 187.673 519.34 192.997 516.014 198.943C515.146 196.261 514.086 193.486 514.086 193.486C514.086 193.486 510.022 174.849 522.043 170.032C524.035 169.867 526.027 170.344 527.631 171.37C529.343 176.332 530.152 180.971 528.456 183.622Z" fill="black"/>
<path d="M480.734 182.448L470.543 184.995L456.392 185.465L454.937 196.004L478.192 197.44C478.192 197.44 484 183.443 480.734 182.448Z" fill="#2F2E41"/>
<path d="M497.353 217.882C497.353 217.882 483.719 219.821 486.83 223.338C489.942 226.854 502.02 223.157 502.02 223.157L497.353 217.882Z" fill="#FFB9B9"/>
<path opacity="0.1" d="M514.038 206.518C514.346 211.62 516.539 217.521 517.326 221.813C512.983 225.336 508.852 228.444 507.296 228.496C504.08 228.602 498.909 228.222 497.005 228.838C495.1 229.453 493.983 219 493.983 219C493.983 219 495.12 215.649 500.19 213.824C503.613 212.59 510.174 209.241 514.038 206.518Z" fill="black"/>
<path d="M521.894 166.724C521.894 166.724 532.778 165.258 532.19 180.737C531.602 196.216 533.338 206.097 528.96 209.003C524.582 211.909 510.362 225.081 507.146 225.188C503.93 225.295 498.76 224.914 496.855 225.53C494.95 226.145 493.833 215.692 493.833 215.692C493.833 215.692 494.97 212.341 500.041 210.516C505.112 208.692 517.058 202.221 516.958 200.016C516.858 197.811 513.936 190.178 513.936 190.178C513.936 190.178 509.872 171.541 521.894 166.724Z" fill="#2F2E41"/>
<path d="M495.118 156.563C502.939 156.563 509.279 151.128 509.279 144.425C509.279 137.721 502.939 132.287 495.118 132.287C487.297 132.287 480.957 137.721 480.957 144.425C480.957 151.128 487.297 156.563 495.118 156.563Z" fill="#FFB9B9"/>
<path d="M485.583 127.028C485.242 127.28 484.832 127.456 484.392 127.54C484.171 127.574 483.944 127.531 483.759 127.422C483.575 127.312 483.449 127.145 483.408 126.956C483.153 127.561 482.68 128.082 482.057 128.441C481.395 128.736 480.372 128.489 480.277 127.854C480.18 128.336 479.932 128.786 479.558 129.155C479.364 129.331 479.096 129.435 478.812 129.443C478.529 129.451 478.253 129.363 478.045 129.198C478.335 130.555 478.156 131.95 478.247 133.328C478.338 134.705 478.767 136.165 479.981 137.07C481.751 138.391 484.414 138.065 486.742 137.815C487.095 137.752 487.46 137.769 487.802 137.865C488.674 138.183 488.635 139.224 488.646 140.036C488.717 141.461 489.376 142.819 490.504 143.868C491.632 144.917 493.158 145.589 494.81 145.765C495.734 145.887 496.677 145.69 497.432 145.216C498.093 144.736 498.431 143.953 499.189 143.592C500.421 143.005 501.916 143.861 502.817 144.791C503.718 145.72 504.606 146.864 506.002 147.034C507.849 147.259 509.255 145.646 509.945 144.161C510.896 142.08 511.353 139.856 511.286 137.622C511.219 135.387 510.631 133.186 509.556 131.149C505.701 123.947 492.532 122.807 485.583 127.028Z" fill="#2F2E41"/>
</g>
<defs>
<clipPath id="clip0">
<rect width="589" height="306" fill="white"/>
</clipPath>
</defs>
</svg>
